<?xml version="1.0" encoding="UTF-8" standalone="no"?>
<!-- Created with Inkscape (http://www.inkscape.org/) -->

<svg
   xmlns:osb="http://www.openswatchbook.org/uri/2009/osb"
   xmlns:dc="http://purl.org/dc/elements/1.1/"
   xmlns:cc="http://creativecommons.org/ns#"
   xmlns:rdf="http://www.w3.org/1999/02/22-rdf-syntax-ns#"
   xmlns:svg="http://www.w3.org/2000/svg"
   xmlns="http://www.w3.org/2000/svg"
   xmlns:sodipodi="http://sodipodi.sourceforge.net/DTD/sodipodi-0.dtd"
   xmlns:inkscape="http://www.inkscape.org/namespaces/inkscape"
   width="210mm"
   height="297mm"
   viewBox="0 0 210 297"
   version="1.1"
   id="svg8"
   inkscape:version="0.92.3 (2405546, 2018-03-11)"
   sodipodi:docname="logo-rascunho.svg">
  <defs
     id="defs2">
    <linearGradient
       id="linearGradient6223"
       osb:paint="solid">
      <stop
         style="stop-color:#00ffff;stop-opacity:1;"
         offset="0"
         id="stop6221" />
    </linearGradient>
  </defs>
  <sodipodi:namedview
     id="base"
     pagecolor="#ffffff"
     bordercolor="#666666"
     borderopacity="1.0"
     inkscape:pageopacity="0.0"
     inkscape:pageshadow="2"
     inkscape:zoom="3.1695968"
     inkscape:cx="392.03186"
     inkscape:cy="473.59638"
     inkscape:document-units="mm"
     inkscape:current-layer="g6253"
     showgrid="true"
     inkscape:snap-nodes="false"
     inkscape:snap-others="true"
     inkscape:window-width="1366"
     inkscape:window-height="713"
     inkscape:window-x="0"
     inkscape:window-y="0"
     inkscape:window-maximized="1"
     inkscape:object-paths="false"
     inkscape:snap-intersection-paths="false"
     inkscape:snap-smooth-nodes="false"
     inkscape:snap-midpoints="false"
     inkscape:object-nodes="false"
     inkscape:snap-grids="true"
     inkscape:snap-to-guides="false"
     showguides="false"
     inkscape:snap-page="true"
     inkscape:snap-object-midpoints="true">
    <inkscape:grid
       type="xygrid"
       id="grid3918" />
  </sodipodi:namedview>
  <metadata
     id="metadata5">
    <rdf:RDF>
      <cc:Work
         rdf:about="">
        <dc:format>image/svg+xml</dc:format>
        <dc:type
           rdf:resource="http://purl.org/dc/dcmitype/StillImage" />
        <dc:title></dc:title>
      </cc:Work>
    </rdf:RDF>
  </metadata>
  <g
     style="display:none"
     id="g6279"
     inkscape:groupmode="layer"
     inkscape:label="Moeda"
     sodipodi:insensitive="true">
    <circle
       style="fill:#dec800;fill-opacity:1;stroke:none;stroke-width:0.21217063;stroke-opacity:1"
       r="17.465485"
       cy="171.69429"
       cx="103.80857"
       id="circle6277" />
    <text
       id="text6259"
       y="62.654762"
       x="36.285713"
       style="font-style:normal;font-weight:normal;font-size:10.58333302px;line-height:1.25;font-family:sans-serif;letter-spacing:0px;word-spacing:0px;fill:#000000;fill-opacity:1;stroke:none;stroke-width:0.26458332"
       xml:space="preserve"><tspan
         id="tspan6257"
         style="font-style:normal;font-variant:normal;font-weight:normal;font-stretch:normal;font-size:10.58333302px;font-family:'Fira Code';-inkscape-font-specification:'Fira Code, Normal';font-variant-ligatures:normal;font-variant-caps:normal;font-variant-numeric:normal;font-feature-settings:normal;text-align:start;writing-mode:lr-tb;text-anchor:start;stroke-width:0.26458332"
         y="62.654762"
         x="36.285713"
         sodipodi:role="line">AME4S</tspan></text>
    <text
       id="text6263"
       y="83.725708"
       x="60.107143"
       style="font-style:normal;font-weight:normal;font-size:10.58333302px;line-height:1.25;font-family:sans-serif;letter-spacing:0px;word-spacing:0px;fill:#000000;fill-opacity:1;stroke:none;stroke-width:0.26458332"
       xml:space="preserve"><tspan
         style="stroke-width:0.26458332"
         y="93.089478"
         x="60.107143"
         id="tspan6261"
         sodipodi:role="line"></tspan></text>
    <g
       id="g6265" />
    <g
       id="g6273">
      <g
         id="g6271">
        <g
           id="g6269"
           style="font-style:normal;font-weight:normal;font-size:10.58333302px;line-height:1.25;font-family:sans-serif;letter-spacing:0px;word-spacing:0px;fill:#000000;fill-opacity:1;stroke:none;stroke-width:0.26458332"
           aria-label="AME4S">
          <path
             sodipodi:nodetypes="ccccccccccccscccccccccccccccccccccccccccsscccccccccccccccc"
             inkscape:connector-curvature="0"
             id="path6267"
             transform="scale(0.26458333)"
             d="m 97.361328,291.31055 c -1.28979,0.0485 -2.171745,0.46254 -3.132812,2.08203 l -12.257813,22.65527 -6.128906,11.32764 -3.064453,5.66381 -1.962129,3.79919 c -0.956378,1.68714 -0.803187,2.46956 -1.102324,4.3451 h 11.439453 v 6.67969 h 3.240234 v -6.67969 H 85.8125 c 2.461681,2.31938 10.57908,6.29102 14.41406,6.29102 6.4,0 10.66459,-3.32008 11.50391,-8.08008 0.92395,-5.24 -2.51779,-7.04125 -6.61914,-8.28125 -4.97199,-1.52 -6.441526,-2.72008 -6.025392,-5.08008 0.486662,-2.76 3.200232,-4.08007 6.240232,-4.08008 9.5362,0 17.06789,7.97727 18.72461,9.69727 l 2.47461,-2.24023 c -1.25828,-1.27917 -5.45246,-5.17528 -10.84766,-7.8125 -0.23129,-3.86066 -0.4621,-7.72136 -0.69335,-11.58204 4.18759,2.44011 7.49705,5.64595 8.45703,6.64258 l 2.47461,-2.24023 c -1.27106,-1.29217 -5.65956,-5.19834 -11.13868,-7.83399 -0.23442,-3.91341 -0.46867,-7.82684 -0.70312,-11.74023 3.223,1.84451 6.15,4.18688 8.75976,6.82227 l 2.47461,-2.24024 c -5.43057,-4.9123 -9.30275,-7.98828 -16.32031,-7.98828 -1.42666,6.29333 -2.85263,12.58753 -4.2793,18.88086 l -4.48046,-18.88086 c -1.172899,-0.054 -2.093318,-0.15603 -2.867192,-0.12695 z m 0.546875,3.32812 c 1.653332,6.46667 3.307607,12.93373 4.960937,19.40039 h 3.48047 c 1.54667,-6.46666 3.09201,-12.93372 4.63867,-19.40039 -0.096,7.36011 0.58258,14.69341 1.01172,22.03321 l 0.22266,3.5039 c -2.08567,-0.70089 -4.27598,-1.15074 -6.50196,-1.14258 -5.27996,0.0193 -9.442255,2.9611 -10.175778,7.1211 -0.768782,4.36 2.278688,6.35898 7.476558,7.95898 4.4802,1.36 5.52725,2.68133 5.05469,5.36133 -0.61362,3.48 -3.94273,5.11914 -7.30273,5.11914 -3.360004,0 -11.217701,-4.33086 -12.820315,-6.13086 h -3.560547 v -7.79883 h -2.919922 l -0.28125,7.79883 h -7.919922 l 14.902344,-27.4082 h 6.103516 c -0.149762,2.64779 -0.299348,5.29563 -0.449219,7.94336 h 3.28125 c 0.277644,-6.09879 0.673616,-12.19236 0.849609,-18.29493 0.02457,-2.02129 0.03139,-4.04431 -0.05078,-6.06445 z m -2.921875,3.88867 c -0.187902,3.31835 -0.37481,6.63672 -0.5625,9.95508 h -4.849609 z"
             style="font-style:normal;font-variant:normal;font-weight:normal;font-stretch:normal;font-size:10.58333302px;font-family:'Fira Code';-inkscape-font-specification:'Fira Code, Normal';font-variant-ligatures:normal;font-variant-caps:normal;font-variant-numeric:normal;font-feature-settings:normal;text-align:start;writing-mode:lr-tb;text-anchor:start;stroke-width:0.99999994" />
        </g>
      </g>
    </g>
  </g>
  <g
     inkscape:label="Mata"
     inkscape:groupmode="layer"
     id="layer1"
     style="display:none"
     sodipodi:insensitive="true">
    <text
       xml:space="preserve"
       style="font-style:normal;font-weight:normal;font-size:10.58333302px;line-height:1.25;font-family:sans-serif;letter-spacing:0px;word-spacing:0px;fill:#000000;fill-opacity:1;stroke:none;stroke-width:0.26458332"
       x="36.285713"
       y="62.654762"
       id="text12"><tspan
         sodipodi:role="line"
         x="36.285713"
         y="62.654762"
         style="font-style:normal;font-variant:normal;font-weight:normal;font-stretch:normal;font-size:10.58333302px;font-family:'Fira Code';-inkscape-font-specification:'Fira Code, Normal';font-variant-ligatures:normal;font-variant-caps:normal;font-variant-numeric:normal;font-feature-settings:normal;text-align:start;writing-mode:lr-tb;text-anchor:start;stroke-width:0.26458332"
         id="tspan14">AME4S</tspan></text>
    <text
       xml:space="preserve"
       style="font-style:normal;font-weight:normal;font-size:10.58333302px;line-height:1.25;font-family:sans-serif;letter-spacing:0px;word-spacing:0px;fill:#000000;fill-opacity:1;stroke:none;stroke-width:0.26458332"
       x="60.107143"
       y="83.725708"
       id="text20"><tspan
         sodipodi:role="line"
         id="tspan18"
         x="60.107143"
         y="93.089478"
         style="stroke-width:0.26458332"></tspan></text>
    <g
       id="g3875" />
    <g
       id="g3915">
      <g
         id="g3847">
        <g
           aria-label="AME4S"
           style="font-style:normal;font-weight:normal;font-size:10.58333302px;line-height:1.25;font-family:sans-serif;letter-spacing:0px;word-spacing:0px;fill:#000000;fill-opacity:1;stroke:none;stroke-width:0.26458332"
           id="text12-0">
          <path
             style="font-style:normal;font-variant:normal;font-weight:normal;font-stretch:normal;font-size:10.58333302px;font-family:'Fira Code';-inkscape-font-specification:'Fira Code, Normal';font-variant-ligatures:normal;font-variant-caps:normal;font-variant-numeric:normal;font-feature-settings:normal;text-align:start;writing-mode:lr-tb;text-anchor:start;stroke-width:0.99999994"
             d="m 97.361328,291.31055 c -1.28979,0.0485 -2.171745,0.46254 -3.132812,2.08203 l -12.257813,22.65527 -6.128906,11.32764 -3.064453,5.66381 -1.962129,3.79919 c -0.956378,1.68714 -0.803187,2.46956 -1.102324,4.3451 h 11.439453 v 6.67969 h 3.240234 v -6.67969 H 85.8125 c 2.461681,2.31938 10.57908,6.29102 14.41406,6.29102 6.4,0 10.66459,-3.32008 11.50391,-8.08008 0.92395,-5.24 -2.51779,-7.04125 -6.61914,-8.28125 -4.97199,-1.52 -6.441526,-2.72008 -6.025392,-5.08008 0.486662,-2.76 3.200232,-4.08007 6.240232,-4.08008 9.5362,0 17.06789,7.97727 18.72461,9.69727 l 2.47461,-2.24023 c -1.25828,-1.27917 -5.45246,-5.17528 -10.84766,-7.8125 -0.23129,-3.86066 -0.4621,-7.72136 -0.69335,-11.58204 4.18759,2.44011 7.49705,5.64595 8.45703,6.64258 l 2.47461,-2.24023 c -1.27106,-1.29217 -5.65956,-5.19834 -11.13868,-7.83399 -0.23442,-3.91341 -0.46867,-7.82684 -0.70312,-11.74023 3.223,1.84451 6.15,4.18688 8.75976,6.82227 l 2.47461,-2.24024 c -5.43057,-4.9123 -9.30275,-7.98828 -16.32031,-7.98828 -1.42666,6.29333 -2.85263,12.58753 -4.2793,18.88086 l -4.48046,-18.88086 c -1.172899,-0.054 -2.093318,-0.15603 -2.867192,-0.12695 z m 0.546875,3.32812 c 1.653332,6.46667 3.307607,12.93373 4.960937,19.40039 h 3.48047 c 1.54667,-6.46666 3.09201,-12.93372 4.63867,-19.40039 -0.096,7.36011 0.58258,14.69341 1.01172,22.03321 l 0.22266,3.5039 c -2.08567,-0.70089 -4.27598,-1.15074 -6.50196,-1.14258 -5.27996,0.0193 -9.442255,2.9611 -10.175778,7.1211 -0.768782,4.36 2.278688,6.35898 7.476558,7.95898 4.4802,1.36 5.52725,2.68133 5.05469,5.36133 -0.61362,3.48 -3.94273,5.11914 -7.30273,5.11914 -3.360004,0 -11.217701,-4.33086 -12.820315,-6.13086 h -3.560547 v -7.79883 h -2.919922 l -0.28125,7.79883 h -7.919922 l 14.902344,-27.4082 h 6.103516 c -0.149762,2.64779 -0.299348,5.29563 -0.449219,7.94336 h 3.28125 c 0.277644,-6.09879 0.673616,-12.19236 0.849609,-18.29493 0.02457,-2.02129 0.03139,-4.04431 -0.05078,-6.06445 z m -2.921875,3.88867 c -0.187902,3.31835 -0.37481,6.63672 -0.5625,9.95508 h -4.849609 z"
             transform="scale(0.26458333)"
             id="path64"
             inkscape:connector-curvature="0"
             sodipodi:nodetypes="ccccccccccccscccccccccccccccccccccccccccsscccccccccccccccc" />
        </g>
      </g>
    </g>
    <path
       style="fill:#00be00;fill-opacity:1;stroke:none;stroke-width:0.26458332px;stroke-linecap:butt;stroke-linejoin:miter;stroke-opacity:1"
       d="m 95.882317,184.00152 c 0.0031,-1.54704 0.02287,-7.5674 -0.791805,-8.61948 -0.814673,-1.05208 -5.311016,-0.51106 -5.97668,-2.5451 -0.42375,-1.29483 6.522257,-13.42422 7.993974,-14.54982 0.960068,-0.73428 2.090509,-0.56697 2.996824,0.33935 1.01605,1.01605 0.56758,2.95533 1.58362,3.97138 0.94286,0.94286 2.15243,1.05598 3.09529,0.11312 1.03714,-1.03714 0.10951,-4.08008 1.52705,-4.45678 1.51389,-0.40231 5.23803,-0.97068 6.81206,0.21806 0.91396,0.69024 1.0017,3.6349 1.0017,3.6349 -1.02625,-2.44289 -5.00436,-2.64012 -6.26808,-1.41909 -0.6233,0.60225 -0.86329,1.82032 -0.25043,2.43318 0.75428,0.75428 2.52936,-0.50385 3.28364,0.25043 0.66,0.66 1.07737,2.05666 0.41737,2.71666 -0.80143,0.80143 -3.60044,-0.71795 -4.40187,0.0835 -0.70714,0.70714 0,3.00016 0,3.00016 0,0 6.05247,-1.42179 8.00041,0 0.58262,0.42525 0,4.20021 0,4.20021 -2.39542,-3.13669 -6.57856,-2.80662 -7.61838,-1.97181 -3.41533,2.74196 1.66191,5.93957 2.01699,6.25316 1.66497,1.47046 2.43174,3.60855 2.08769,5.20257 -0.48674,2.25511 -3.13384,2.93328 -4.98706,3.04893 -6.33793,0.39551 -5.6285,-6.14361 -5.70349,-8.07893 -0.0165,-0.42583 -0.3077,-2.76222 -1.092095,-2.76201 -0.78444,2.1e-4 -1.138973,1.16158 -1.161373,1.41363 -0.14101,1.58702 -0.07137,5.05584 -0.11307,7.44534 -0.0077,0.44396 -0.484172,2.07566 -1.311464,2.00347 -0.827293,-0.0722 -1.141815,-1.43351 -1.140821,-1.92501 z"
       id="path3924"
       inkscape:connector-curvature="0"
       sodipodi:nodetypes="szssssssscssssscscssssszsszs" />
  </g>
  <g
     id="g6253"
     inkscape:groupmode="layer"
     inkscape:label="Rio"
     style="display:inline">
    <text
       id="text6229"
       y="62.654762"
       x="36.285713"
       style="font-style:normal;font-weight:normal;font-size:10.58333302px;line-height:1.25;font-family:sans-serif;letter-spacing:0px;word-spacing:0px;fill:#000000;fill-opacity:1;stroke:none;stroke-width:0.26458332"
       xml:space="preserve"><tspan
         id="tspan6227"
         style="font-style:normal;font-variant:normal;font-weight:normal;font-stretch:normal;font-size:10.58333302px;font-family:'Fira Code';-inkscape-font-specification:'Fira Code, Normal';font-variant-ligatures:normal;font-variant-caps:normal;font-variant-numeric:normal;font-feature-settings:normal;text-align:start;writing-mode:lr-tb;text-anchor:start;stroke-width:0.26458332"
         y="62.654762"
         x="36.285713"
         sodipodi:role="line">AME4S</tspan></text>
    <text
       id="text6233"
       y="83.725708"
       x="60.107143"
       style="font-style:normal;font-weight:normal;font-size:10.58333302px;line-height:1.25;font-family:sans-serif;letter-spacing:0px;word-spacing:0px;fill:#000000;fill-opacity:1;stroke:none;stroke-width:0.26458332"
       xml:space="preserve"><tspan
         style="stroke-width:0.26458332"
         y="93.089478"
         x="60.107143"
         id="tspan6231"
         sodipodi:role="line"></tspan></text>
    <g
       id="g6235" />
    <g
       id="g6243">
      <g
         id="g6241">
        <g
           id="g6239"
           style="font-style:normal;font-weight:normal;font-size:10.58333302px;line-height:1.25;font-family:sans-serif;letter-spacing:0px;word-spacing:0px;fill:#000000;fill-opacity:1;stroke:none;stroke-width:0.26458332"
           aria-label="AME4S">
          <path
             sodipodi:nodetypes="ccccccccccccscccccccccccccccccccccccccccsscccccccccccccccc"
             inkscape:connector-curvature="0"
             id="path6237"
             transform="scale(0.26458333)"
             d="m 97.361328,291.31055 c -1.28979,0.0485 -2.171745,0.46254 -3.132812,2.08203 l -12.257813,22.65527 -6.128906,11.32764 -3.064453,5.66381 -1.962129,3.79919 c -0.956378,1.68714 -0.803187,2.46956 -1.102324,4.3451 h 11.439453 v 6.67969 h 3.240234 v -6.67969 H 85.8125 c 2.461681,2.31938 10.57908,6.29102 14.41406,6.29102 6.4,0 10.66459,-3.32008 11.50391,-8.08008 0.92395,-5.24 -2.51779,-7.04125 -6.61914,-8.28125 -4.97199,-1.52 -6.441526,-2.72008 -6.025392,-5.08008 0.486662,-2.76 3.200232,-4.08007 6.240232,-4.08008 9.5362,0 17.06789,7.97727 18.72461,9.69727 l 2.47461,-2.24023 c -1.25828,-1.27917 -5.45246,-5.17528 -10.84766,-7.8125 -0.23129,-3.86066 -0.4621,-7.72136 -0.69335,-11.58204 4.18759,2.44011 7.49705,5.64595 8.45703,6.64258 l 2.47461,-2.24023 c -1.27106,-1.29217 -5.65956,-5.19834 -11.13868,-7.83399 -0.23442,-3.91341 -0.46867,-7.82684 -0.70312,-11.74023 3.223,1.84451 6.15,4.18688 8.75976,6.82227 l 2.47461,-2.24024 c -5.43057,-4.9123 -9.30275,-7.98828 -16.32031,-7.98828 -1.42666,6.29333 -2.85263,12.58753 -4.2793,18.88086 l -4.48046,-18.88086 c -1.172899,-0.054 -2.093318,-0.15603 -2.867192,-0.12695 z m 0.546875,3.32812 c 1.653332,6.46667 3.307607,12.93373 4.960937,19.40039 h 3.48047 c 1.54667,-6.46666 3.09201,-12.93372 4.63867,-19.40039 -0.096,7.36011 0.58258,14.69341 1.01172,22.03321 l 0.22266,3.5039 c -2.08567,-0.70089 -4.27598,-1.15074 -6.50196,-1.14258 -5.27996,0.0193 -9.442255,2.9611 -10.175778,7.1211 -0.768782,4.36 2.278688,6.35898 7.476558,7.95898 4.4802,1.36 5.52725,2.68133 5.05469,5.36133 -0.61362,3.48 -3.94273,5.11914 -7.30273,5.11914 -3.360004,0 -11.217701,-4.33086 -12.820315,-6.13086 h -3.560547 v -7.79883 h -2.919922 l -0.28125,7.79883 h -7.919922 l 14.902344,-27.4082 h 6.103516 c -0.149762,2.64779 -0.299348,5.29563 -0.449219,7.94336 h 3.28125 c 0.277644,-6.09879 0.673616,-12.19236 0.849609,-18.29493 0.02457,-2.02129 0.03139,-4.04431 -0.05078,-6.06445 z m -2.921875,3.88867 c -0.187902,3.31835 -0.37481,6.63672 -0.5625,9.95508 h -4.849609 z"
             style="font-style:normal;font-variant:normal;font-weight:normal;font-stretch:normal;font-size:10.58333302px;font-family:'Fira Code';-inkscape-font-specification:'Fira Code, Normal';font-variant-ligatures:normal;font-variant-caps:normal;font-variant-numeric:normal;font-feature-settings:normal;text-align:start;writing-mode:lr-tb;text-anchor:start;stroke-width:0.99999994" />
        </g>
      </g>
    </g>
    <path
       style="fill:#00bea2;fill-opacity:1;stroke:none;stroke-width:0.99999994px;stroke-linecap:butt;stroke-linejoin:miter;stroke-opacity:1"
       d="m 416.45508,596.25781 c -5.57173,-0.0412 -11.43189,1.01384 -14.65039,1.86914 -5.35763,1.42375 -1.85159,12.92385 -5.77149,16.84375 -3.56356,3.56357 -8.13565,3.13583 -11.69922,-0.42773 -3.84015,-3.84019 -2.14613,-11.16958 -5.98632,-15.00977 -3.42545,-3.42546 -7.69757,-4.05843 -11.32618,-1.2832 -5.56239,4.25424 -31.81446,50.09834 -30.21289,54.99219 2.5159,7.68771 19.50882,5.64277 22.58789,9.61914 3.07909,3.97636 3.00586,26.73104 2.99414,32.57812 -0.004,1.85764 1.18378,7.00251 4.31055,7.27539 3.12677,0.27285 4.92793,-5.8943 4.95703,-7.57226 0.15761,-9.03118 -0.10521,-22.14244 0.42774,-28.14063 0.0847,-0.95263 1.42386,-5.341 4.38867,-5.34179 2.96464,-8e-4 4.06654,8.83001 4.12891,10.43945 0.28342,7.31459 -2.39774,32.02804 21.55664,30.5332 7.00429,-0.4371 17.00801,-3.00019 18.84765,-11.52343 1.30035,-6.02465 -1.59782,-14.10447 -7.89062,-19.66211 -1.34204,-1.18523 -20.53138,-13.27146 -7.62305,-23.63477 3.93003,-3.15519 19.74137,-4.40207 28.79492,7.45312 0,10e-6 2.20203,-14.26775 0,-15.875 -7.36229,-5.37368 -30.23828,0 -30.23828,0 0,10e-6 -2.67265,-8.66718 0,-11.33984 3.02903,-3.0291 13.60769,2.71457 16.63672,-0.31445 2.49449,-2.49449 0.91635,-7.77504 -1.57812,-10.26953 -2.85083,-2.85083 -9.55934,1.90551 -12.41016,-0.94532 -2.31632,-2.31632 -1.40852,-6.92104 0.94726,-9.19726 4.77627,-4.61492 19.81072,-3.86969 23.68946,5.36328 0,0 -0.33082,-11.12755 -3.78516,-13.73633 -2.60273,-1.96563 -6.76214,-2.66132 -11.0957,-2.69336 z m -45.41992,7.52344 c 0.20101,-0.0152 0.41378,-0.0145 0.63672,0.002 2.83923,0.21014 3.00704,6.19937 3.41992,12.39844 -3.55306,-2.26545 -7.062,-5.58583 -11.11524,-3.20703 3.33221,-5.23173 4.04338,-8.96473 7.0586,-9.19336 z m -5.44532,15.12891 c 12.15839,0.16002 5.23305,22.069 11.26368,22.55078 4.18202,0.33407 4.3581,-5.03513 4.00586,-9.42774 l -0.85547,-10.67382 c 4.73556,6.27317 11.20489,7.08354 16.05078,3.04296 l 0.17383,21.44727 c -5.92388,17.60602 1.59977,25.35123 13.61523,34.80859 2.20963,1.73923 4.15805,8.026 0.27148,11.87696 -3.23758,3.20795 -11.0069,2.55822 -14.17773,0.91015 -5.88053,-3.05643 -8.04558,-8.31751 -8.54297,-16.98828 -0.34412,-5.99917 1.62197,-21.16637 -3.99414,-22.29297 -1.82075,-0.36548 -8.29322,-0.35665 -10.90039,-0.80664 -2.43928,-0.42104 -1.30996,-10.99717 -6.78125,-11.55469 -2.93969,-0.29952 -5.43082,2.26688 -5.70117,5.69922 -0.2882,3.65881 -5.23091,5.21677 -9.69336,5.06446 -4.37101,-0.14918 -6.69973,-4.10515 -4.76953,-7.5918 8.1206,-14.66873 16.00354,-26.11737 20.03515,-26.06445 z"
       transform="scale(0.26458333)"
       id="path6245"
       inkscape:connector-curvature="0" />
  </g>
</svg>
